<mxfile host="app.diagrams.net" agent="Mozilla/5.0 (Windows NT 10.0; Win64; x64) AppleWebKit/537.36 (KHTML, like Gecko) Chrome/137.0.0.0 Safari/537.36 Edg/137.0.0.0" version="27.1.5">
  <diagram id="dMFPq8Ma2SvLUkesaSkS" name="Page-1">
    <mxGraphModel dx="1668" dy="894" grid="1" gridSize="10" guides="1" tooltips="1" connect="1" arrows="1" fold="1" page="1" pageScale="1" pageWidth="1169" pageHeight="827" background="light-dark(#FFFFFF,#F7F7F7)" math="0" shadow="0">
      <root>
        <mxCell id="0" />
        <mxCell id="1" parent="0" />
        <mxCell id="d45avjFu-AIYiAAqqC4H-1" value="Initial Conditions" style="rounded=1;whiteSpace=wrap;html=1;labelBackgroundColor=none;fillColor=light-dark(#B2C9AB,#CCFFCC);strokeColor=#788AA3;fontColor=light-dark(#46495D,#46495D);" vertex="1" parent="1">
          <mxGeometry x="30" y="230" width="90" height="220" as="geometry" />
        </mxCell>
        <mxCell id="d45avjFu-AIYiAAqqC4H-2" value="Fluid properties" style="rounded=1;whiteSpace=wrap;html=1;labelBackgroundColor=none;fillColor=light-dark(#B2C9AB,#CCFFCC);strokeColor=#788AA3;fontColor=light-dark(#46495D,#46495D);" vertex="1" parent="1">
          <mxGeometry x="30" y="460" width="90" height="90" as="geometry" />
        </mxCell>
        <mxCell id="d45avjFu-AIYiAAqqC4H-3" value="Isentropic Compression" style="rounded=1;whiteSpace=wrap;html=1;labelBackgroundColor=none;fillColor=light-dark(#A9C4EB,#A9C4EB);strokeColor=#788AA3;fontColor=light-dark(#46495D,#333333);" vertex="1" parent="1">
          <mxGeometry x="320" y="230" width="90" height="140" as="geometry" />
        </mxCell>
        <mxCell id="d45avjFu-AIYiAAqqC4H-4" value="" style="edgeStyle=elbowEdgeStyle;elbow=horizontal;endArrow=classic;html=1;curved=0;rounded=1;endSize=8;startSize=8;fontSize=12;entryX=-0.01;entryY=0.327;entryDx=0;entryDy=0;entryPerimeter=0;exitX=0.988;exitY=0.336;exitDx=0;exitDy=0;exitPerimeter=0;labelBackgroundColor=none;strokeColor=#788AA3;fontColor=default;" edge="1" parent="1" source="d45avjFu-AIYiAAqqC4H-2" target="d45avjFu-AIYiAAqqC4H-3">
          <mxGeometry width="50" height="50" relative="1" as="geometry">
            <mxPoint x="120" y="510" as="sourcePoint" />
            <mxPoint x="170" y="460" as="targetPoint" />
            <Array as="points">
              <mxPoint x="220" y="400" />
            </Array>
          </mxGeometry>
        </mxCell>
        <mxCell id="d45avjFu-AIYiAAqqC4H-5" value="gamma" style="edgeLabel;html=1;align=center;verticalAlign=middle;resizable=0;points=[];fontSize=12;labelBackgroundColor=light-dark(#D9D9D9,#DBDBDB);fontColor=light-dark(#46495D,#46495D);rounded=1;" vertex="1" connectable="0" parent="d45avjFu-AIYiAAqqC4H-4">
          <mxGeometry x="0.6716" relative="1" as="geometry">
            <mxPoint x="-91" y="214" as="offset" />
          </mxGeometry>
        </mxCell>
        <mxCell id="d45avjFu-AIYiAAqqC4H-6" value="" style="edgeStyle=elbowEdgeStyle;elbow=horizontal;endArrow=classic;html=1;curved=0;rounded=1;endSize=8;startSize=8;fontSize=12;exitX=0.996;exitY=0.671;exitDx=0;exitDy=0;entryX=-0.01;entryY=0.457;entryDx=0;entryDy=0;labelBackgroundColor=none;strokeColor=#788AA3;fontColor=default;exitPerimeter=0;entryPerimeter=0;" edge="1" parent="1" source="d45avjFu-AIYiAAqqC4H-2" target="d45avjFu-AIYiAAqqC4H-3">
          <mxGeometry width="50" height="50" relative="1" as="geometry">
            <mxPoint x="120" y="535" as="sourcePoint" />
            <mxPoint x="280" y="330" as="targetPoint" />
            <Array as="points">
              <mxPoint x="230" y="400" />
            </Array>
          </mxGeometry>
        </mxCell>
        <mxCell id="d45avjFu-AIYiAAqqC4H-7" value="cp" style="edgeLabel;html=1;align=center;verticalAlign=middle;resizable=0;points=[];fontSize=12;labelBackgroundColor=light-dark(#D9D9D9,#DBDBDB);fontColor=light-dark(#46495D,#46495D);rounded=1;" vertex="1" connectable="0" parent="d45avjFu-AIYiAAqqC4H-6">
          <mxGeometry x="0.7863" y="-1" relative="1" as="geometry">
            <mxPoint x="-113" y="225" as="offset" />
          </mxGeometry>
        </mxCell>
        <mxCell id="d45avjFu-AIYiAAqqC4H-8" value="Isobaric Heat addition" style="rounded=1;whiteSpace=wrap;html=1;labelBackgroundColor=none;fillColor=light-dark(#A9C4EB,#A9C4EB);strokeColor=#788AA3;fontColor=light-dark(#46495D,#333333);" vertex="1" parent="1">
          <mxGeometry x="540" y="230" width="90" height="140" as="geometry" />
        </mxCell>
        <mxCell id="d45avjFu-AIYiAAqqC4H-9" value="" style="endArrow=classic;html=1;rounded=1;fontSize=12;startSize=8;endSize=8;curved=1;exitX=1;exitY=0.25;exitDx=0;exitDy=0;entryX=0;entryY=0.25;entryDx=0;entryDy=0;labelBackgroundColor=none;strokeColor=#788AA3;fontColor=default;" edge="1" parent="1" source="d45avjFu-AIYiAAqqC4H-3" target="d45avjFu-AIYiAAqqC4H-8">
          <mxGeometry width="50" height="50" relative="1" as="geometry">
            <mxPoint x="410" y="460" as="sourcePoint" />
            <mxPoint x="460" y="410" as="targetPoint" />
          </mxGeometry>
        </mxCell>
        <mxCell id="d45avjFu-AIYiAAqqC4H-10" value="T2" style="edgeLabel;html=1;align=center;verticalAlign=middle;resizable=0;points=[];fontSize=12;labelBackgroundColor=light-dark(#D9D9D9,#DBDBDB);fontColor=light-dark(#46495D,#46495D);rounded=1;" vertex="1" connectable="0" parent="d45avjFu-AIYiAAqqC4H-9">
          <mxGeometry x="0.364" y="-2" relative="1" as="geometry">
            <mxPoint x="-18" y="-7" as="offset" />
          </mxGeometry>
        </mxCell>
        <mxCell id="d45avjFu-AIYiAAqqC4H-11" value="" style="edgeStyle=elbowEdgeStyle;elbow=horizontal;endArrow=classic;html=1;curved=0;rounded=1;endSize=8;startSize=8;fontSize=12;entryX=0;entryY=0.571;entryDx=0;entryDy=0;entryPerimeter=0;labelBackgroundColor=none;strokeColor=#788AA3;fontColor=default;" edge="1" parent="1" source="d45avjFu-AIYiAAqqC4H-32" target="d45avjFu-AIYiAAqqC4H-8">
          <mxGeometry width="50" height="50" relative="1" as="geometry">
            <mxPoint x="210" y="490" as="sourcePoint" />
            <mxPoint x="290" y="440" as="targetPoint" />
            <Array as="points">
              <mxPoint x="420" y="400" />
            </Array>
          </mxGeometry>
        </mxCell>
        <mxCell id="d45avjFu-AIYiAAqqC4H-12" value="" style="endArrow=classic;html=1;rounded=1;fontSize=12;startSize=8;endSize=8;curved=1;exitX=0.999;exitY=0.472;exitDx=0;exitDy=0;exitPerimeter=0;labelBackgroundColor=none;strokeColor=#788AA3;fontColor=default;verticalAlign=middle;" edge="1" parent="1">
          <mxGeometry width="50" height="50" relative="1" as="geometry">
            <mxPoint x="118.90999999999997" y="289.68" as="sourcePoint" />
            <mxPoint x="158" y="290" as="targetPoint" />
          </mxGeometry>
        </mxCell>
        <mxCell id="d45avjFu-AIYiAAqqC4H-13" value="P3" style="rounded=1;whiteSpace=wrap;html=1;labelBackgroundColor=none;fillColor=light-dark(#B5739D,#F19C99);strokeColor=#788AA3;fontColor=light-dark(#46495D,#333333);" vertex="1" parent="1">
          <mxGeometry x="159" y="280" width="50" height="20" as="geometry" />
        </mxCell>
        <mxCell id="d45avjFu-AIYiAAqqC4H-14" value="P4" style="rounded=1;whiteSpace=wrap;html=1;labelBackgroundColor=none;fillColor=light-dark(#B5739D,#F19C99);strokeColor=#788AA3;fontColor=light-dark(#46495D,#333333);" vertex="1" parent="1">
          <mxGeometry x="159" y="312" width="50" height="20" as="geometry" />
        </mxCell>
        <mxCell id="d45avjFu-AIYiAAqqC4H-15" value="" style="endArrow=classic;html=1;rounded=1;fontSize=12;startSize=8;endSize=8;curved=1;exitX=1.001;exitY=0.631;exitDx=0;exitDy=0;exitPerimeter=0;entryX=0;entryY=0.5;entryDx=0;entryDy=0;labelBackgroundColor=none;strokeColor=#788AA3;fontColor=default;" edge="1" parent="1" target="d45avjFu-AIYiAAqqC4H-14">
          <mxGeometry width="50" height="50" relative="1" as="geometry">
            <mxPoint x="119.09000000000003" y="321.89" as="sourcePoint" />
            <mxPoint x="229" y="282" as="targetPoint" />
          </mxGeometry>
        </mxCell>
        <mxCell id="d45avjFu-AIYiAAqqC4H-16" value="T3" style="rounded=1;whiteSpace=wrap;html=1;labelBackgroundColor=none;fillColor=light-dark(#B5739D,#F19C99);strokeColor=#788AA3;fontColor=light-dark(#46495D,#333333);" vertex="1" parent="1">
          <mxGeometry x="160.9" y="370" width="50" height="20" as="geometry" />
        </mxCell>
        <mxCell id="d45avjFu-AIYiAAqqC4H-17" value="" style="endArrow=classic;html=1;rounded=1;fontSize=12;startSize=8;endSize=8;curved=1;entryX=0;entryY=0.5;entryDx=0;entryDy=0;exitX=0.99;exitY=0.727;exitDx=0;exitDy=0;exitPerimeter=0;labelBackgroundColor=none;strokeColor=#788AA3;fontColor=default;" edge="1" parent="1" target="d45avjFu-AIYiAAqqC4H-16">
          <mxGeometry width="50" height="50" relative="1" as="geometry">
            <mxPoint x="120.00000000000003" y="379.93999999999994" as="sourcePoint" />
            <mxPoint x="228.9" y="320" as="targetPoint" />
          </mxGeometry>
        </mxCell>
        <mxCell id="d45avjFu-AIYiAAqqC4H-18" value="T3" style="rounded=1;whiteSpace=wrap;html=1;labelBackgroundColor=none;fillColor=light-dark(#B5739D,#F19C99);strokeColor=#788AA3;fontColor=light-dark(#46495D,#333333);" vertex="1" parent="1">
          <mxGeometry x="450" y="330" width="50" height="20" as="geometry" />
        </mxCell>
        <mxCell id="d45avjFu-AIYiAAqqC4H-19" value="" style="endArrow=classic;html=1;rounded=1;fontSize=12;startSize=8;endSize=8;curved=1;entryX=-0.012;entryY=0.785;entryDx=0;entryDy=0;entryPerimeter=0;exitX=1;exitY=0.5;exitDx=0;exitDy=0;labelBackgroundColor=none;strokeColor=#788AA3;fontColor=default;" edge="1" parent="1" source="d45avjFu-AIYiAAqqC4H-18" target="d45avjFu-AIYiAAqqC4H-8">
          <mxGeometry width="50" height="50" relative="1" as="geometry">
            <mxPoint x="320" y="450" as="sourcePoint" />
            <mxPoint x="370" y="400" as="targetPoint" />
          </mxGeometry>
        </mxCell>
        <mxCell id="d45avjFu-AIYiAAqqC4H-20" value="" style="edgeStyle=elbowEdgeStyle;elbow=horizontal;endArrow=classic;html=1;curved=0;rounded=1;endSize=8;startSize=8;fontSize=12;entryDx=0;entryDy=0;entryPerimeter=0;labelBackgroundColor=none;strokeColor=#788AA3;fontColor=default;exitX=0.65;exitY=0.578;exitDx=0;exitDy=0;exitPerimeter=0;" edge="1" parent="1" source="d45avjFu-AIYiAAqqC4H-21" target="d45avjFu-AIYiAAqqC4H-21">
          <mxGeometry width="50" height="50" relative="1" as="geometry">
            <mxPoint x="210" y="490" as="sourcePoint" />
            <mxPoint x="510" y="310" as="targetPoint" />
            <Array as="points" />
          </mxGeometry>
        </mxCell>
        <mxCell id="d45avjFu-AIYiAAqqC4H-21" value="" style="shape=waypoint;fillStyle=solid;size=6;pointerEvents=1;points=[];fillColor=none;resizable=0;rotatable=0;perimeter=centerPerimeter;snapToPoint=1;labelBackgroundColor=none;strokeColor=#788AA3;fontColor=#46495D;rounded=1;" vertex="1" parent="1">
          <mxGeometry x="209" y="510" width="20" height="20" as="geometry" />
        </mxCell>
        <mxCell id="d45avjFu-AIYiAAqqC4H-22" value="" style="endArrow=classic;html=1;rounded=1;fontSize=12;startSize=8;endSize=8;curved=1;exitX=1.002;exitY=0.428;exitDx=0;exitDy=0;exitPerimeter=0;labelBackgroundColor=none;strokeColor=#788AA3;fontColor=default;verticalAlign=middle;entryX=0;entryY=0.5;entryDx=0;entryDy=0;" edge="1" parent="1" source="d45avjFu-AIYiAAqqC4H-3" target="d45avjFu-AIYiAAqqC4H-23">
          <mxGeometry width="50" height="50" relative="1" as="geometry">
            <mxPoint x="380" y="290" as="sourcePoint" />
            <mxPoint x="419" y="290" as="targetPoint" />
          </mxGeometry>
        </mxCell>
        <mxCell id="d45avjFu-AIYiAAqqC4H-23" value="Wc" style="rounded=1;whiteSpace=wrap;html=1;labelBackgroundColor=none;fillColor=light-dark(#D4E1F5,#9AC7BF);strokeColor=#788AA3;fontColor=light-dark(#46495D,#46495D);" vertex="1" parent="1">
          <mxGeometry x="440" y="280" width="50" height="20" as="geometry" />
        </mxCell>
        <mxCell id="d45avjFu-AIYiAAqqC4H-24" value="Isentropic Expansion" style="rounded=1;whiteSpace=wrap;html=1;labelBackgroundColor=none;fillColor=light-dark(#A9C4EB,#A9C4EB);strokeColor=#788AA3;fontColor=light-dark(#46495D,#333333);" vertex="1" parent="1">
          <mxGeometry x="790" y="230" width="90" height="170" as="geometry" />
        </mxCell>
        <mxCell id="d45avjFu-AIYiAAqqC4H-25" value="" style="endArrow=classic;html=1;rounded=1;fontSize=12;startSize=8;endSize=8;curved=1;labelBackgroundColor=none;strokeColor=#788AA3;fontColor=default;exitX=0.993;exitY=0.214;exitDx=0;exitDy=0;exitPerimeter=0;entryX=0;entryY=0.176;entryDx=0;entryDy=0;entryPerimeter=0;" edge="1" parent="1" source="d45avjFu-AIYiAAqqC4H-8" target="d45avjFu-AIYiAAqqC4H-24">
          <mxGeometry width="50" height="50" relative="1" as="geometry">
            <mxPoint x="650" y="260" as="sourcePoint" />
            <mxPoint x="690" y="260" as="targetPoint" />
          </mxGeometry>
        </mxCell>
        <mxCell id="d45avjFu-AIYiAAqqC4H-26" value="T3" style="edgeLabel;html=1;align=center;verticalAlign=middle;resizable=0;points=[];fontSize=12;labelBackgroundColor=light-dark(#D9D9D9,#DBDBDB);fontColor=light-dark(#46495D,#46495D);rounded=1;" vertex="1" connectable="0" parent="d45avjFu-AIYiAAqqC4H-25">
          <mxGeometry x="0.364" y="-2" relative="1" as="geometry">
            <mxPoint x="-18" y="-7" as="offset" />
          </mxGeometry>
        </mxCell>
        <mxCell id="d45avjFu-AIYiAAqqC4H-27" value="P3" style="rounded=1;whiteSpace=wrap;html=1;labelBackgroundColor=none;fillColor=light-dark(#B5739D,#F19C99);strokeColor=#788AA3;fontColor=light-dark(#46495D,#333333);" vertex="1" parent="1">
          <mxGeometry x="690" y="270" width="50" height="20" as="geometry" />
        </mxCell>
        <mxCell id="d45avjFu-AIYiAAqqC4H-28" value="" style="endArrow=classic;html=1;rounded=1;fontSize=12;startSize=8;endSize=8;curved=1;entryX=0.004;entryY=0.35;entryDx=0;entryDy=0;entryPerimeter=0;exitX=1;exitY=0.5;exitDx=0;exitDy=0;labelBackgroundColor=none;strokeColor=#788AA3;fontColor=default;" edge="1" parent="1" source="d45avjFu-AIYiAAqqC4H-27">
          <mxGeometry width="50" height="50" relative="1" as="geometry">
            <mxPoint x="521" y="390" as="sourcePoint" />
            <mxPoint x="790.3600000000001" y="279.5" as="targetPoint" />
          </mxGeometry>
        </mxCell>
        <mxCell id="d45avjFu-AIYiAAqqC4H-29" value="P4" style="rounded=1;whiteSpace=wrap;html=1;labelBackgroundColor=none;fillColor=light-dark(#B5739D,#F19C99);strokeColor=#788AA3;fontColor=light-dark(#46495D,#333333);" vertex="1" parent="1">
          <mxGeometry x="690" y="300" width="50" height="20" as="geometry" />
        </mxCell>
        <mxCell id="d45avjFu-AIYiAAqqC4H-30" value="" style="endArrow=classic;html=1;rounded=1;fontSize=12;startSize=8;endSize=8;curved=1;exitX=1;exitY=0.5;exitDx=0;exitDy=0;labelBackgroundColor=none;strokeColor=#788AA3;fontColor=default;entryX=-0.001;entryY=0.531;entryDx=0;entryDy=0;entryPerimeter=0;" edge="1" parent="1" source="d45avjFu-AIYiAAqqC4H-29">
          <mxGeometry width="50" height="50" relative="1" as="geometry">
            <mxPoint x="521" y="420" as="sourcePoint" />
            <mxPoint x="789.9100000000001" y="310.2700000000001" as="targetPoint" />
          </mxGeometry>
        </mxCell>
        <mxCell id="d45avjFu-AIYiAAqqC4H-31" value="" style="edgeStyle=elbowEdgeStyle;elbow=horizontal;endArrow=classic;html=1;curved=0;rounded=1;endSize=8;startSize=8;fontSize=12;entryX=-0.005;entryY=0.903;entryDx=0;entryDy=0;entryPerimeter=0;labelBackgroundColor=none;strokeColor=#788AA3;fontColor=default;" edge="1" parent="1" source="d45avjFu-AIYiAAqqC4H-32" target="d45avjFu-AIYiAAqqC4H-24">
          <mxGeometry width="50" height="50" relative="1" as="geometry">
            <mxPoint x="388.02" y="605" as="sourcePoint" />
            <mxPoint x="790" y="413.85" as="targetPoint" />
            <Array as="points">
              <mxPoint x="748.02" y="470" />
            </Array>
          </mxGeometry>
        </mxCell>
        <mxCell id="d45avjFu-AIYiAAqqC4H-32" value="" style="shape=waypoint;fillStyle=solid;size=6;pointerEvents=1;points=[];fillColor=none;resizable=0;rotatable=0;perimeter=centerPerimeter;snapToPoint=1;labelBackgroundColor=none;strokeColor=#788AA3;fontColor=#46495D;rounded=1;" vertex="1" parent="1">
          <mxGeometry x="398.02" y="510" width="20" height="20" as="geometry" />
        </mxCell>
        <mxCell id="d45avjFu-AIYiAAqqC4H-33" value="" style="edgeStyle=elbowEdgeStyle;elbow=horizontal;endArrow=classic;html=1;curved=0;rounded=1;endSize=8;startSize=8;fontSize=12;labelBackgroundColor=none;strokeColor=#788AA3;fontColor=default;entryX=0;entryY=0.75;entryDx=0;entryDy=0;" edge="1" parent="1" target="d45avjFu-AIYiAAqqC4H-24">
          <mxGeometry width="50" height="50" relative="1" as="geometry">
            <mxPoint x="210" y="489.98" as="sourcePoint" />
            <mxPoint x="790.0000000000002" y="379.9999999999999" as="targetPoint" />
            <Array as="points">
              <mxPoint x="720" y="429.98" />
            </Array>
          </mxGeometry>
        </mxCell>
        <mxCell id="d45avjFu-AIYiAAqqC4H-34" value="" style="endArrow=none;html=1;rounded=0;strokeColor=light-dark(#C1C1C1, #788aa3);" edge="1" parent="1">
          <mxGeometry width="50" height="50" relative="1" as="geometry">
            <mxPoint x="220" y="520" as="sourcePoint" />
            <mxPoint x="410" y="520" as="targetPoint" />
          </mxGeometry>
        </mxCell>
        <mxCell id="d45avjFu-AIYiAAqqC4H-35" value="" style="endArrow=classic;html=1;rounded=1;fontSize=12;startSize=8;endSize=8;curved=1;labelBackgroundColor=none;strokeColor=#788AA3;fontColor=default;verticalAlign=middle;entryX=0;entryY=0.5;entryDx=0;entryDy=0;exitX=0.999;exitY=0.469;exitDx=0;exitDy=0;exitPerimeter=0;" edge="1" parent="1" source="d45avjFu-AIYiAAqqC4H-24" target="d45avjFu-AIYiAAqqC4H-36">
          <mxGeometry width="50" height="50" relative="1" as="geometry">
            <mxPoint x="900" y="310" as="sourcePoint" />
            <mxPoint x="849" y="310" as="targetPoint" />
          </mxGeometry>
        </mxCell>
        <mxCell id="d45avjFu-AIYiAAqqC4H-36" value="Wt" style="rounded=1;whiteSpace=wrap;html=1;labelBackgroundColor=none;fillColor=light-dark(#D4E1F5,#9AC7BF);strokeColor=#788AA3;fontColor=light-dark(#46495D,#46495D);" vertex="1" parent="1">
          <mxGeometry x="910" y="300" width="50" height="20" as="geometry" />
        </mxCell>
        <mxCell id="d45avjFu-AIYiAAqqC4H-37" value="Isobaric Heat rejection" style="rounded=1;whiteSpace=wrap;html=1;labelBackgroundColor=none;fillColor=light-dark(#A9C4EB,#A9C4EB);strokeColor=#788AA3;fontColor=light-dark(#46495D,#333333);" vertex="1" parent="1">
          <mxGeometry x="980" y="230" width="90" height="140" as="geometry" />
        </mxCell>
        <mxCell id="d45avjFu-AIYiAAqqC4H-38" value="" style="endArrow=classic;html=1;rounded=1;fontSize=12;startSize=8;endSize=8;curved=1;labelBackgroundColor=none;strokeColor=#788AA3;fontColor=default;entryX=-0.013;entryY=0.209;entryDx=0;entryDy=0;entryPerimeter=0;exitX=1.012;exitY=0.171;exitDx=0;exitDy=0;exitPerimeter=0;" edge="1" parent="1" source="d45avjFu-AIYiAAqqC4H-24" target="d45avjFu-AIYiAAqqC4H-37">
          <mxGeometry width="50" height="50" relative="1" as="geometry">
            <mxPoint x="890" y="259" as="sourcePoint" />
            <mxPoint x="911" y="260" as="targetPoint" />
          </mxGeometry>
        </mxCell>
        <mxCell id="d45avjFu-AIYiAAqqC4H-39" value="T4" style="edgeLabel;html=1;align=center;verticalAlign=middle;resizable=0;points=[];fontSize=12;labelBackgroundColor=light-dark(#D9D9D9,#DBDBDB);fontColor=light-dark(#46495D,#46495D);rounded=1;" vertex="1" connectable="0" parent="d45avjFu-AIYiAAqqC4H-38">
          <mxGeometry x="0.364" y="-2" relative="1" as="geometry">
            <mxPoint x="-18" y="-7" as="offset" />
          </mxGeometry>
        </mxCell>
        <mxCell id="d45avjFu-AIYiAAqqC4H-40" value="T1" style="rounded=1;whiteSpace=wrap;html=1;labelBackgroundColor=none;fillColor=light-dark(#B5739D,#F19C99);strokeColor=#788AA3;fontColor=light-dark(#46495D,#333333);" vertex="1" parent="1">
          <mxGeometry x="160" y="344" width="50" height="20" as="geometry" />
        </mxCell>
        <mxCell id="d45avjFu-AIYiAAqqC4H-41" value="" style="endArrow=classic;html=1;rounded=1;fontSize=12;startSize=8;endSize=8;curved=1;entryX=0;entryY=0.5;entryDx=0;entryDy=0;exitX=1.004;exitY=0.842;exitDx=0;exitDy=0;exitPerimeter=0;labelBackgroundColor=none;strokeColor=#788AA3;fontColor=default;" edge="1" parent="1" target="d45avjFu-AIYiAAqqC4H-40">
          <mxGeometry width="50" height="50" relative="1" as="geometry">
            <mxPoint x="120" y="354" as="sourcePoint" />
            <mxPoint x="228" y="294" as="targetPoint" />
          </mxGeometry>
        </mxCell>
        <mxCell id="d45avjFu-AIYiAAqqC4H-42" value="T1" style="rounded=1;whiteSpace=wrap;html=1;labelBackgroundColor=none;fillColor=light-dark(#B5739D,#F19C99);strokeColor=#788AA3;fontColor=light-dark(#46495D,#333333);" vertex="1" parent="1">
          <mxGeometry x="240" y="310" width="50" height="20" as="geometry" />
        </mxCell>
        <mxCell id="d45avjFu-AIYiAAqqC4H-43" value="" style="endArrow=classic;html=1;rounded=1;fontSize=12;startSize=8;endSize=8;curved=1;entryX=0.006;entryY=0.857;entryDx=0;entryDy=0;entryPerimeter=0;exitX=1;exitY=0.5;exitDx=0;exitDy=0;labelBackgroundColor=none;strokeColor=#788AA3;fontColor=default;" edge="1" parent="1">
          <mxGeometry width="50" height="50" relative="1" as="geometry">
            <mxPoint x="290" y="320" as="sourcePoint" />
            <mxPoint x="320.53999999999996" y="319.9799999999999" as="targetPoint" />
          </mxGeometry>
        </mxCell>
        <mxCell id="d45avjFu-AIYiAAqqC4H-44" value="T1" style="rounded=1;whiteSpace=wrap;html=1;labelBackgroundColor=none;fillColor=light-dark(#B5739D,#F19C99);strokeColor=#788AA3;fontColor=light-dark(#46495D,#333333);" vertex="1" parent="1">
          <mxGeometry x="900" y="270" width="50" height="20" as="geometry" />
        </mxCell>
        <mxCell id="d45avjFu-AIYiAAqqC4H-45" value="" style="endArrow=classic;html=1;rounded=1;fontSize=12;startSize=8;endSize=8;curved=1;entryX=-0.009;entryY=0.36;entryDx=0;entryDy=0;entryPerimeter=0;labelBackgroundColor=none;strokeColor=#788AA3;fontColor=default;exitX=1;exitY=0.5;exitDx=0;exitDy=0;" edge="1" parent="1" source="d45avjFu-AIYiAAqqC4H-44" target="d45avjFu-AIYiAAqqC4H-37">
          <mxGeometry width="50" height="50" relative="1" as="geometry">
            <mxPoint x="1030" y="280" as="sourcePoint" />
            <mxPoint x="920" y="280" as="targetPoint" />
          </mxGeometry>
        </mxCell>
        <mxCell id="d45avjFu-AIYiAAqqC4H-46" value="" style="edgeStyle=elbowEdgeStyle;elbow=horizontal;endArrow=classic;html=1;curved=0;rounded=1;endSize=8;startSize=8;fontSize=12;entryX=0;entryY=0.786;entryDx=0;entryDy=0;entryPerimeter=0;labelBackgroundColor=none;strokeColor=#788AA3;fontColor=default;" edge="1" parent="1" target="d45avjFu-AIYiAAqqC4H-37">
          <mxGeometry width="50" height="50" relative="1" as="geometry">
            <mxPoint x="740" y="520" as="sourcePoint" />
            <mxPoint x="942" y="384" as="targetPoint" />
            <Array as="points">
              <mxPoint x="940" y="420" />
            </Array>
          </mxGeometry>
        </mxCell>
        <mxCell id="d45avjFu-AIYiAAqqC4H-47" value="" style="endArrow=classic;html=1;rounded=1;fontSize=12;startSize=8;endSize=8;curved=1;exitX=1.002;exitY=0.428;exitDx=0;exitDy=0;exitPerimeter=0;labelBackgroundColor=none;strokeColor=#788AA3;fontColor=default;verticalAlign=middle;entryX=0;entryY=0.5;entryDx=0;entryDy=0;" edge="1" parent="1" target="d45avjFu-AIYiAAqqC4H-48">
          <mxGeometry width="50" height="50" relative="1" as="geometry">
            <mxPoint x="630" y="350" as="sourcePoint" />
            <mxPoint x="639" y="350" as="targetPoint" />
          </mxGeometry>
        </mxCell>
        <mxCell id="d45avjFu-AIYiAAqqC4H-48" value="Qin" style="rounded=1;whiteSpace=wrap;html=1;labelBackgroundColor=none;fillColor=light-dark(#D4E1F5,#9AC7BF);strokeColor=#788AA3;fontColor=light-dark(#46495D,#46495D);" vertex="1" parent="1">
          <mxGeometry x="650" y="340" width="50" height="20" as="geometry" />
        </mxCell>
        <mxCell id="d45avjFu-AIYiAAqqC4H-49" value="" style="endArrow=classic;html=1;rounded=1;fontSize=12;startSize=8;endSize=8;curved=1;labelBackgroundColor=none;strokeColor=#788AA3;fontColor=default;verticalAlign=middle;entryX=0;entryY=0.5;entryDx=0;entryDy=0;exitX=1;exitY=0.5;exitDx=0;exitDy=0;" edge="1" parent="1" source="d45avjFu-AIYiAAqqC4H-37" target="d45avjFu-AIYiAAqqC4H-50">
          <mxGeometry width="50" height="50" relative="1" as="geometry">
            <mxPoint x="1080" y="300" as="sourcePoint" />
            <mxPoint x="1079" y="300" as="targetPoint" />
          </mxGeometry>
        </mxCell>
        <mxCell id="d45avjFu-AIYiAAqqC4H-50" value="Qout" style="rounded=1;whiteSpace=wrap;html=1;labelBackgroundColor=none;fillColor=light-dark(#D4E1F5,#9AC7BF);strokeColor=#788AA3;fontColor=light-dark(#46495D,#46495D);" vertex="1" parent="1">
          <mxGeometry x="1100" y="290" width="50" height="20" as="geometry" />
        </mxCell>
        <mxCell id="d45avjFu-AIYiAAqqC4H-51" value="" style="endArrow=none;dashed=1;html=1;rounded=0;exitX=0.75;exitY=1;exitDx=0;exitDy=0;strokeColor=#868686;" edge="1" parent="1" source="d45avjFu-AIYiAAqqC4H-2" target="d45avjFu-AIYiAAqqC4H-53">
          <mxGeometry width="50" height="50" relative="1" as="geometry">
            <mxPoint x="120" y="580" as="sourcePoint" />
            <mxPoint x="130" y="610" as="targetPoint" />
          </mxGeometry>
        </mxCell>
        <mxCell id="d45avjFu-AIYiAAqqC4H-52" value="" style="group" vertex="1" connectable="0" parent="1">
          <mxGeometry x="59" y="580" width="150" height="80" as="geometry" />
        </mxCell>
        <mxCell id="d45avjFu-AIYiAAqqC4H-53" value="" style="shape=datastore;whiteSpace=wrap;html=1;fillColor=#C3ABD0;strokeColor=#868686;" vertex="1" parent="d45avjFu-AIYiAAqqC4H-52">
          <mxGeometry x="45" width="60" height="60" as="geometry" />
        </mxCell>
        <mxCell id="d45avjFu-AIYiAAqqC4H-54" value="ideal_gas_properties.db" style="rounded=0;whiteSpace=wrap;html=1;strokeColor=none;fillColor=none;fontColor=#868686;" vertex="1" parent="d45avjFu-AIYiAAqqC4H-52">
          <mxGeometry y="60" width="150" height="20" as="geometry" />
        </mxCell>
        <mxCell id="d45avjFu-AIYiAAqqC4H-55" value="Preliminary calculations" style="rounded=1;whiteSpace=wrap;html=1;labelBackgroundColor=none;fillColor=light-dark(#A9C4EB,#FFF2CC);strokeColor=#788AA3;fontColor=light-dark(#46495D,#333333);" vertex="1" parent="1">
          <mxGeometry x="200" y="120" width="90" height="100" as="geometry" />
        </mxCell>
        <mxCell id="d45avjFu-AIYiAAqqC4H-56" value="" style="edgeStyle=elbowEdgeStyle;elbow=horizontal;endArrow=classic;html=1;curved=0;rounded=1;endSize=8;startSize=8;fontSize=12;exitX=1.008;exitY=0.085;exitDx=0;exitDy=0;entryX=-0.013;entryY=0.147;entryDx=0;entryDy=0;labelBackgroundColor=none;strokeColor=#788AA3;fontColor=default;exitPerimeter=0;entryPerimeter=0;" edge="1" parent="1" source="d45avjFu-AIYiAAqqC4H-1" target="d45avjFu-AIYiAAqqC4H-55">
          <mxGeometry width="50" height="50" relative="1" as="geometry">
            <mxPoint x="120" y="225" as="sourcePoint" />
            <mxPoint x="320" y="50" as="targetPoint" />
            <Array as="points">
              <mxPoint x="150" y="190" />
            </Array>
          </mxGeometry>
        </mxCell>
        <mxCell id="d45avjFu-AIYiAAqqC4H-57" value="P1" style="edgeLabel;html=1;align=center;verticalAlign=middle;resizable=0;points=[];labelBackgroundColor=light-dark(#D9D9D9,#DBDBDB);fontColor=light-dark(#46495D,#46495D);" vertex="1" connectable="0" parent="d45avjFu-AIYiAAqqC4H-56">
          <mxGeometry x="-0.5576" relative="1" as="geometry">
            <mxPoint y="-24" as="offset" />
          </mxGeometry>
        </mxCell>
        <mxCell id="d45avjFu-AIYiAAqqC4H-58" value="" style="edgeStyle=elbowEdgeStyle;elbow=horizontal;endArrow=classic;html=1;curved=0;rounded=1;endSize=8;startSize=8;fontSize=12;entryX=-0.013;entryY=0.328;entryDx=0;entryDy=0;labelBackgroundColor=none;strokeColor=#788AA3;fontColor=default;exitX=0.997;exitY=0.145;exitDx=0;exitDy=0;exitPerimeter=0;entryPerimeter=0;" edge="1" parent="1" source="d45avjFu-AIYiAAqqC4H-1" target="d45avjFu-AIYiAAqqC4H-55">
          <mxGeometry width="50" height="50" relative="1" as="geometry">
            <mxPoint x="130" y="270" as="sourcePoint" />
            <mxPoint x="267" y="240" as="targetPoint" />
            <Array as="points">
              <mxPoint x="160" y="210" />
            </Array>
          </mxGeometry>
        </mxCell>
        <mxCell id="d45avjFu-AIYiAAqqC4H-59" value="P2" style="edgeLabel;html=1;align=center;verticalAlign=middle;resizable=0;points=[];labelBackgroundColor=light-dark(#D9D9D9,#DBDBDB);fontColor=light-dark(#46495D,#46495D);" vertex="1" connectable="0" parent="d45avjFu-AIYiAAqqC4H-58">
          <mxGeometry x="-0.5576" relative="1" as="geometry">
            <mxPoint x="10" y="-107" as="offset" />
          </mxGeometry>
        </mxCell>
        <mxCell id="d45avjFu-AIYiAAqqC4H-60" value="" style="edgeStyle=elbowEdgeStyle;elbow=horizontal;endArrow=classic;html=1;curved=0;rounded=1;endSize=8;startSize=8;fontSize=12;entryX=-0.01;entryY=0.151;entryDx=0;entryDy=0;labelBackgroundColor=none;strokeColor=#788AA3;fontColor=default;entryPerimeter=0;exitX=0.987;exitY=0.537;exitDx=0;exitDy=0;exitPerimeter=0;" edge="1" parent="1" source="d45avjFu-AIYiAAqqC4H-55" target="d45avjFu-AIYiAAqqC4H-3">
          <mxGeometry width="50" height="50" relative="1" as="geometry">
            <mxPoint x="420" y="240" as="sourcePoint" />
            <mxPoint x="467" y="346" as="targetPoint" />
            <Array as="points">
              <mxPoint x="300" y="230" />
            </Array>
          </mxGeometry>
        </mxCell>
        <mxCell id="d45avjFu-AIYiAAqqC4H-61" value="rc" style="edgeLabel;html=1;align=center;verticalAlign=middle;resizable=0;points=[];labelBackgroundColor=light-dark(#D9D9D9,#DBDBDB);fontColor=light-dark(#46495D,#46495D);" vertex="1" connectable="0" parent="d45avjFu-AIYiAAqqC4H-60">
          <mxGeometry x="-0.5576" relative="1" as="geometry">
            <mxPoint y="43" as="offset" />
          </mxGeometry>
        </mxCell>
        <mxCell id="d45avjFu-AIYiAAqqC4H-62" value="" style="endArrow=classic;html=1;rounded=1;fontSize=12;startSize=8;endSize=8;curved=1;labelBackgroundColor=none;strokeColor=#788AA3;fontColor=default;verticalAlign=middle;entryX=0;entryY=0.5;entryDx=0;entryDy=0;exitX=1;exitY=0.6;exitDx=0;exitDy=0;exitPerimeter=0;" edge="1" parent="1" target="d45avjFu-AIYiAAqqC4H-63">
          <mxGeometry width="50" height="50" relative="1" as="geometry">
            <mxPoint x="290" y="150" as="sourcePoint" />
            <mxPoint x="319" y="150" as="targetPoint" />
          </mxGeometry>
        </mxCell>
        <mxCell id="d45avjFu-AIYiAAqqC4H-63" value="m_dot" style="rounded=1;whiteSpace=wrap;html=1;labelBackgroundColor=none;fillColor=light-dark(#D4E1F5,#9AC7BF);strokeColor=#788AA3;fontColor=light-dark(#46495D,#46495D);" vertex="1" parent="1">
          <mxGeometry x="340" y="140" width="50" height="20" as="geometry" />
        </mxCell>
        <mxCell id="d45avjFu-AIYiAAqqC4H-64" value="" style="edgeStyle=elbowEdgeStyle;elbow=horizontal;endArrow=classic;html=1;curved=0;rounded=1;endSize=8;startSize=8;fontSize=12;labelBackgroundColor=none;strokeColor=#788AA3;fontColor=default;exitX=0.99;exitY=0.179;exitDx=0;exitDy=0;exitPerimeter=0;entryX=-0.024;entryY=0.709;entryDx=0;entryDy=0;entryPerimeter=0;" edge="1" parent="1">
          <mxGeometry width="50" height="50" relative="1" as="geometry">
            <mxPoint x="120.10000000000002" y="273.38" as="sourcePoint" />
            <mxPoint x="198.84000000000003" y="194.89999999999998" as="targetPoint" />
            <Array as="points">
              <mxPoint x="171" y="244" />
            </Array>
          </mxGeometry>
        </mxCell>
        <mxCell id="d45avjFu-AIYiAAqqC4H-65" value="volumetric_flow_rate" style="edgeLabel;html=1;align=center;verticalAlign=middle;resizable=0;points=[];labelBackgroundColor=light-dark(#D9D9D9,#DBDBDB);fontColor=light-dark(#46495D,#46495D);" vertex="1" connectable="0" parent="d45avjFu-AIYiAAqqC4H-64">
          <mxGeometry x="-0.5576" relative="1" as="geometry">
            <mxPoint x="59" y="-21" as="offset" />
          </mxGeometry>
        </mxCell>
        <mxCell id="d45avjFu-AIYiAAqqC4H-67" value="" style="shape=waypoint;fillStyle=solid;size=6;pointerEvents=1;points=[];fillColor=none;resizable=0;rotatable=0;perimeter=centerPerimeter;snapToPoint=1;labelBackgroundColor=none;strokeColor=#788AA3;fontColor=#46495D;rounded=1;" vertex="1" parent="1">
          <mxGeometry x="730" y="510" width="20" height="20" as="geometry" />
        </mxCell>
        <mxCell id="d45avjFu-AIYiAAqqC4H-69" value="" style="shape=waypoint;fillStyle=solid;size=6;pointerEvents=1;points=[];fillColor=none;resizable=0;rotatable=0;perimeter=centerPerimeter;snapToPoint=1;labelBackgroundColor=none;strokeColor=#788AA3;fontColor=#46495D;rounded=1;" vertex="1" parent="1">
          <mxGeometry x="200" y="480" width="20" height="20" as="geometry" />
        </mxCell>
        <mxCell id="d45avjFu-AIYiAAqqC4H-77" value="" style="endArrow=classic;html=1;rounded=1;fontSize=12;startSize=8;endSize=8;curved=1;entryX=0;entryY=0.5;entryDx=0;entryDy=0;exitX=0.99;exitY=0.727;exitDx=0;exitDy=0;exitPerimeter=0;labelBackgroundColor=none;strokeColor=#788AA3;fontColor=default;" edge="1" target="d45avjFu-AIYiAAqqC4H-78" parent="1">
          <mxGeometry width="50" height="50" relative="1" as="geometry">
            <mxPoint x="119" y="410" as="sourcePoint" />
            <mxPoint x="228" y="350" as="targetPoint" />
          </mxGeometry>
        </mxCell>
        <mxCell id="d45avjFu-AIYiAAqqC4H-78" value="c_s_eff" style="rounded=1;whiteSpace=wrap;html=1;labelBackgroundColor=none;fillColor=light-dark(#B5739D,#F19C99);strokeColor=#788AA3;fontColor=light-dark(#46495D,#333333);" vertex="1" parent="1">
          <mxGeometry x="160" y="400" width="50" height="20" as="geometry" />
        </mxCell>
        <mxCell id="d45avjFu-AIYiAAqqC4H-79" value="" style="endArrow=classic;html=1;rounded=1;fontSize=12;startSize=8;endSize=8;curved=1;entryX=0;entryY=0.5;entryDx=0;entryDy=0;exitX=0.99;exitY=0.727;exitDx=0;exitDy=0;exitPerimeter=0;labelBackgroundColor=none;strokeColor=#788AA3;fontColor=default;" edge="1" target="d45avjFu-AIYiAAqqC4H-80" parent="1">
          <mxGeometry width="50" height="50" relative="1" as="geometry">
            <mxPoint x="119" y="440" as="sourcePoint" />
            <mxPoint x="228" y="380" as="targetPoint" />
          </mxGeometry>
        </mxCell>
        <mxCell id="d45avjFu-AIYiAAqqC4H-80" value="t_s_eff" style="rounded=1;whiteSpace=wrap;html=1;labelBackgroundColor=none;fillColor=light-dark(#B5739D,#F19C99);strokeColor=#788AA3;fontColor=light-dark(#46495D,#333333);" vertex="1" parent="1">
          <mxGeometry x="160" y="430" width="50" height="20" as="geometry" />
        </mxCell>
        <mxCell id="d45avjFu-AIYiAAqqC4H-83" value="" style="endArrow=classic;html=1;rounded=1;fontSize=12;startSize=8;endSize=8;curved=1;entryX=0.006;entryY=0.857;entryDx=0;entryDy=0;entryPerimeter=0;exitX=1;exitY=0.5;exitDx=0;exitDy=0;labelBackgroundColor=none;strokeColor=#788AA3;fontColor=default;" edge="1" parent="1">
          <mxGeometry width="50" height="50" relative="1" as="geometry">
            <mxPoint x="290" y="350" as="sourcePoint" />
            <mxPoint x="320.53999999999996" y="349.9799999999999" as="targetPoint" />
          </mxGeometry>
        </mxCell>
        <mxCell id="d45avjFu-AIYiAAqqC4H-84" value="c_s_eff" style="rounded=1;whiteSpace=wrap;html=1;labelBackgroundColor=none;fillColor=light-dark(#B5739D,#F19C99);strokeColor=#788AA3;fontColor=light-dark(#46495D,#333333);" vertex="1" parent="1">
          <mxGeometry x="240" y="340" width="50" height="20" as="geometry" />
        </mxCell>
        <mxCell id="d45avjFu-AIYiAAqqC4H-89" value="" style="endArrow=classic;html=1;rounded=1;fontSize=12;startSize=8;endSize=8;curved=1;entryX=0.006;entryY=0.857;entryDx=0;entryDy=0;entryPerimeter=0;exitX=1;exitY=0.5;exitDx=0;exitDy=0;labelBackgroundColor=none;strokeColor=#788AA3;fontColor=default;" edge="1" parent="1">
          <mxGeometry width="50" height="50" relative="1" as="geometry">
            <mxPoint x="759.46" y="340" as="sourcePoint" />
            <mxPoint x="790" y="339.9799999999999" as="targetPoint" />
          </mxGeometry>
        </mxCell>
        <mxCell id="d45avjFu-AIYiAAqqC4H-90" value="t_s_eff" style="rounded=1;whiteSpace=wrap;html=1;labelBackgroundColor=none;fillColor=light-dark(#B5739D,#F19C99);strokeColor=#788AA3;fontColor=light-dark(#46495D,#333333);" vertex="1" parent="1">
          <mxGeometry x="709.46" y="330" width="50" height="20" as="geometry" />
        </mxCell>
      </root>
    </mxGraphModel>
  </diagram>
</mxfile>
